<?xml version="1.0" encoding="utf-8"?>
<!-- Generator: Adobe Illustrator 23.0.3, SVG Export Plug-In . SVG Version: 6.00 Build 0)  -->
<svg version="1.1" id="Layer_1" xmlns="http://www.w3.org/2000/svg" xmlns:xlink="http://www.w3.org/1999/xlink" x="0px" y="0px"
	 viewBox="0 0 288 288" style="enable-background:new 0 0 288 288;" xml:space="preserve">
<style type="text/css">
	.st0{fill:#4CAF50;}
</style>
<g transform="matrix(1,0,0,1,-8,-6)">
	<path class="st0" d="M281,86h-45c-7.2-12.5-17.1-23.3-29-31.4l26-26L210.4,6l-34.8,34.8C168.4,39,160.8,38,153,38s-15.4,1-22.6,2.8
		L95.6,6L73,28.6l26,26C87.1,62.7,77.2,73.5,70,86H25v32h33.4c-0.9,5.2-1.4,10.6-1.4,16v16H25v32h32v16c0,5.4,0.6,10.8,1.4,16H25v32
		h45c16.6,28.6,47.5,48,83,48s66.5-19.4,83-48h45v-32h-33.4c0.9-5.2,1.4-10.6,1.4-16v-16h32v-32h-32v-16c0-5.4-0.6-10.8-1.4-16H281
		V86z M185,214h-64v-32h64V214z M185,150h-64v-32h64V150z"/>
</g>
</svg>
