<?xml version="1.0" encoding="utf-8"?>
<!-- Generator: Adobe Illustrator 23.0.3, SVG Export Plug-In . SVG Version: 6.00 Build 0)  -->
<svg version="1.1" id="Layer_1" xmlns="http://www.w3.org/2000/svg" xmlns:xlink="http://www.w3.org/1999/xlink" x="0px" y="0px"
	 viewBox="0 0 288 288" style="enable-background:new 0 0 288 288;" xml:space="preserve">
<style type="text/css">
	.st0{fill:#916BD8;}
</style>
<g transform="matrix(1,0,0,1,-8,-4)">
	<path class="st0" d="M266.2,257.2V90.4L179.8,4H64.6C48.7,4,35.9,16.9,35.9,32.8l-0.1,230.4c0,15.9,12.7,28.8,28.7,28.8h172.9
		c6.4,0,12.3-2.2,17.1-5.8l-63.9-63.9c-11.3,7.6-24.9,12-39.6,12c-39.7,0-72-32.3-72-72s32.3-72,72-72s72,32.3,72,72
		c0,14.7-4.5,28.3-12,39.7L266.2,257.2z M107.8,162.4c0,23.8,19.4,43.2,43.2,43.2s43.2-19.4,43.2-43.2s-19.4-43.2-43.2-43.2
		S107.8,138.6,107.8,162.4z"/>
</g>
</svg>
